HIERARCHY
ROOT Hips
{
  OFFSET -187.679 86.5976 -156.378
  CHANNELS 6 Xposition Yposition Zposition Zrotation Xrotation Yrotation
  JOINT LeftUpLeg
  {
    OFFSET 8.64259 1.95398 -2.38835
    CHANNELS 3 Zrotation Xrotation Yrotation
    JOINT LeftLeg
    {
      OFFSET 43.7702 0 0
      CHANNELS 3 Zrotation Xrotation Yrotation
      JOINT LeftFoot
      {
        OFFSET 40.6238 0 0
        CHANNELS 3 Zrotation Xrotation Yrotation
        JOINT LeftToeBase
        {
          OFFSET 12.7242 0 0
          CHANNELS 3 Zrotation Xrotation Yrotation
          End Site
          {
            OFFSET 0 0 0
          }
        }
      }
    }
  }
  JOINT RightUpLeg
  {
    OFFSET -8.2249 1.95398 -2.59336
    CHANNELS 3 Zrotation Xrotation Yrotation
    JOINT RightLeg
    {
      OFFSET 43.5653 0 0
      CHANNELS 3 Zrotation Xrotation Yrotation
      JOINT RightFoot
      {
        OFFSET 40.6238 0 0
        CHANNELS 3 Zrotation Xrotation Yrotation
        JOINT RightToeBase
        {
          OFFSET 12.7242 0 0
          CHANNELS 3 Zrotation Xrotation Yrotation
          End Site
          {
            OFFSET 0 0 0
          }
        }
      }
    }
  }
  JOINT Spine
  {
    OFFSET 0.165834 0.87714 6.61349
    CHANNELS 3 Zrotation Xrotation Yrotation
    JOINT Spine1
    {
      OFFSET 7.38963 1.71661e-005 0
      CHANNELS 3 Zrotation Xrotation Yrotation
      JOINT Spine2
      {
        OFFSET 11.9445 1.14441e-005 0
        CHANNELS 3 Zrotation Xrotation Yrotation
        JOINT Spine3
        {
          OFFSET 14.7254 4.19617e-005 0
          CHANNELS 3 Zrotation Xrotation Yrotation
          JOINT Spine4
          {
            OFFSET 10.9679 0 0
            CHANNELS 3 Zrotation Xrotation Yrotation
            JOINT RightShoulder
            {
              OFFSET 2.46616 -1.6653 3.69651
              CHANNELS 3 Zrotation Xrotation Yrotation
              JOINT RightArm
              {
                OFFSET 13.0012 0 0
                CHANNELS 3 Zrotation Xrotation Yrotation
                JOINT RightForeArm
                {
                  OFFSET 28.7848 1.52588e-005 0
                  CHANNELS 3 Zrotation Xrotation Yrotation
                  JOINT RightHand
                  {
                    OFFSET 26.5688 1.52588e-005 0
                    CHANNELS 3 Zrotation Xrotation Yrotation
                    End Site
                    {
                      OFFSET 0 0 0
                    }
                  }
                }
              }
            }
            JOINT LeftShoulder
            {
              OFFSET 2.38034 -1.29275 -3.7523
              CHANNELS 3 Zrotation Xrotation Yrotation
              JOINT LeftArm
              {
                OFFSET 16.3182 6.10352e-005 0
                CHANNELS 3 Zrotation Xrotation Yrotation
                JOINT LeftForeArm
                {
                  OFFSET 27.0901 0 0
                  CHANNELS 3 Zrotation Xrotation Yrotation
                  JOINT LeftHand
                  {
                    OFFSET 24.5451 1.52588e-005 0
                    CHANNELS 3 Zrotation Xrotation Yrotation
                    End Site
                    {
                      OFFSET 0 0 0
                    }
                  }
                }
              }
            }
            JOINT Neck
            {
              OFFSET 5.0226 -0.0266342 0
              CHANNELS 3 Zrotation Xrotation Yrotation
              JOINT Head
              {
                OFFSET 6.69363 2.86102e-005 0
                CHANNELS 3 Zrotation Xrotation Yrotation
                End Site
                {
                  OFFSET 0 0 0
                }
              }
            }
          }
        }
      }
    }
  }
}
MOTION
Frames:	6
Frame Time:	0.0416667
8.66158 101.674 21.3715 -149.813 -80.8243 -150.812 -175.663 -2.94634 87.3824 -18.4999 16.3494 8.05979 70.5852 4.75762 -0.649502 15.3644 -7.11557 3.64838 172.763 -4.71351 88.6893 -17.6768 13.0628 3.34657 68.8586 -3.88603 3.69093 24.5423 -1.62895 2.9673 0.103077 7.69778 -89.8445 11.4779 0.277821 0.281531 -0.193031 0.289935 0.26903 -22.7281 0.180362 0.35201 -2.71542 0.180361 0.352011 86.0821 -49.4273 -106.746 26.7809 -28.1573 -14.2018 -16.5764 -19.2702 -17.8437 -7.43611 -0.18202 -2.29719 -90.4573 -47.8664 77.7867 -25.5371 28.5227 -9.01283 8.67003 -5.99674 -15.2092 -1.72477 -0.0694606 -0.144024 10.0613 -0.1888 -2.05403 6.12908 0.438457 2.03612 
8.63953 101.676 21.3543 -149.46 -80.9195 -150.345 -175.655 -2.74735 87.5002 -18.5922 16.0292 8.06606 70.7487 4.73141 -0.995115 15.0438 -7.20925 3.52665 172.907 -4.60015 88.883 -17.6468 12.7273 3.28144 68.7051 -3.84879 3.23148 24.5399 -1.69083 3.15112 0.118574 7.67739 -89.8777 11.5188 0.293106 0.213535 -0.152115 0.302221 0.200424 -22.6873 0.215372 0.291759 -2.67465 0.215378 0.291756 86.3611 -49.1217 -106.414 27.0585 -27.9983 -14.1362 -16.5432 -19.1223 -17.7668 -7.7734 -0.154492 -2.72648 -90.7916 -48.1751 77.3514 -25.4116 28.4521 -8.74744 8.67697 -6.03956 -15.36 -1.95851 -0.0694596 -0.34738 10.1195 -0.271528 -2.121 5.67701 0.399104 2.47134 
8.70801 101.692 21.3921 -150.7 -81.0202 -151.779 -175.707 -2.95705 87.2927 -18.2831 16.5968 8.02337 71.3063 5.07594 -0.937449 13.5425 -8.53967 4.78224 172.766 -4.53555 88.6524 -17.8226 12.4231 3.28877 68.7751 -3.803 2.77323 23.6392 -1.99781 3.56157 0.112285 7.68953 -89.907 11.4946 0.266956 0.158134 -0.176346 0.273659 0.146224 -22.7116 0.207083 0.231047 -2.69892 0.207092 0.231058 86.9394 -48.5741 -105.692 27.2344 -27.5032 -14.4102 -16.2933 -18.2575 -17.4522 -9.41603 -0.0567749 -4.54875 -91.5173 -49.0464 76.4648 -24.5219 28.6545 -8.86628 8.17978 -7.46013 -15.0524 -1.83134 -0.0694323 -1.64286 9.75365 -0.522631 -1.63697 6.66961 0.0660652 2.531 
8.72527 101.693 21.4793 -150.732 -81.1124 -151.853 -175.667 -2.86321 87.2842 -18.4364 16.6135 7.94128 71.469 5.13658 -0.94539 13.5364 -8.45295 4.60274 172.607 -4.5679 88.4965 -17.7526 12.6906 3.40481 68.8706 -3.85607 3.25981 23.6092 -1.96383 3.44222 0.084371 7.68969 -89.8995 11.4943 0.214887 0.178297 -0.176646 0.222525 0.168657 -22.7118 0.15136 0.234637 -2.69915 0.151366 0.234636 86.7797 -48.6698 -105.909 27.0208 -27.5707 -14.489 -16.2922 -18.5083 -17.4259 -9.38748 -0.0530496 -4.56415 -91.3853 -48.9899 76.6497 -24.6495 28.4024 -8.84221 8.338 -7.00958 -15.0527 -1.74179 -0.0694502 -1.0053 9.94735 -0.422785 -1.50401 6.66598 0.105182 2.15504 
8.69816 101.677 21.5028 -148.761 -80.8653 -149.665 -175.538 -2.87869 87.5328 -18.5782 16.1409 7.87972 71.6933 5.07442 -1.42077 13.6891 -8.74488 5.31971 172.788 -4.6444 88.7491 -17.651 12.5168 3.32852 68.69 -3.83793 3.09179 23.7086 -2.05031 3.75412 0.154908 7.69532 -89.8908 11.483 0.359314 0.180976 -0.187943 0.366915 0.164987 -22.7233 0.288298 0.280587 -2.71064 0.288306 0.280599 86.4518 -49.1758 -106.259 26.8669 -27.2801 -14.0706 -16.5433 -18.8374 -17.7525 -8.66616 -0.10342 -3.8144 -91.5083 -48.4244 76.3257 -25.1106 28.3682 -8.52295 8.68008 -6.15752 -15.5245 -1.9798 -0.0776363 -1.5293 9.69615 -0.605544 -2.30627 7.03849 0.152101 2.64692 
8.80416 101.68 21.5653 -151.95 -81.2033 -153.166 -175.736 -2.86499 87.1321 -18.6442 17.2004 8.01405 71.4288 5.19062 -0.772559 13.9469 -8.63369 5.34913 172.632 -4.51497 88.3533 -17.7147 11.9642 3.28205 68.4917 -3.70336 2.69462 24.2907 -1.86854 3.54713 0.0808695 7.68013 -89.8603 11.5133 0.226289 0.255228 -0.157647 0.237302 0.24502 -22.6927 0.139117 0.311436 -2.68003 0.139121 0.31144 86.3767 -49.2912 -106.339 26.7658 -27.377 -13.7715 -16.499 -18.0758 -17.942 -9.8139 -0.0270582 -4.91011 -91.6676 -48.8699 76.1961 -24.6805 28.7607 -8.52554 8.07967 -7.81182 -15.1577 -2.08193 -0.0793666 -1.46362 9.4398 -0.599374 -2.32029 7.28891 0.170612 2.74572 
